<?xml version="1.0" encoding="UTF-8" standalone="no"?>
<!-- Generator: Adobe Illustrator 12.0.0, SVG Export Plug-In . SVG Version: 6.00 Build 51448)  -->

<svg
   xmlns:dc="http://purl.org/dc/elements/1.1/"
   xmlns:cc="http://creativecommons.org/ns#"
   xmlns:rdf="http://www.w3.org/1999/02/22-rdf-syntax-ns#"
   xmlns:svg="http://www.w3.org/2000/svg"
   xmlns="http://www.w3.org/2000/svg"
   xmlns:xlink="http://www.w3.org/1999/xlink"
   xmlns:sodipodi="http://sodipodi.sourceforge.net/DTD/sodipodi-0.dtd"
   xmlns:inkscape="http://www.inkscape.org/namespaces/inkscape"
   height="138.188"
   id="Layer_1"
   inkscape:version="0.47 r22583"
   sodipodi:docname="icon.svg"
   sodipodi:version="0.32"
   space="preserve"
   style="overflow: visible;"
   version="1.1"
   viewBox="0 0 138.322 138.188"
   width="138.322">
  <metadata
     id="metadata3">
    <rdf:RDF>
      <cc:Work
         rdf:about="">
        <dc:title>Tabella</dc:title>
        <dc:description />
        <dc:subject>
          <rdf:Bag>
            <rdf:li>unsorted</rdf:li>
          </rdf:Bag>
        </dc:subject>
        <dc:publisher>
          <cc:Agent
             rdf:about="http://www.openclipart.org/">
            <dc:title>Open Clip Art Library</dc:title>
          </cc:Agent>
        </dc:publisher>
        <dc:creator>
          <cc:Agent>
            <dc:title>Architetto Francesco Rollandin</dc:title>
          </cc:Agent>
        </dc:creator>
        <dc:rights>
          <cc:Agent>
            <dc:title>Architetto Francesco Rollandin</dc:title>
          </cc:Agent>
        </dc:rights>
        <dc:date />
        <dc:format>image/svg+xml</dc:format>
        <dc:type
           rdf:resource="http://purl.org/dc/dcmitype/StillImage" />
        <cc:license
           rdf:resource="http://web.resource.org/cc/PublicDomain" />
        <dc:language>en</dc:language>
      </cc:Work>
      <cc:License
         rdf:about="http://web.resource.org/cc/PublicDomain">
        <cc:permits
           rdf:resource="http://web.resource.org/cc/Reproduction" />
        <cc:permits
           rdf:resource="http://web.resource.org/cc/Distribution" />
        <cc:permits
           rdf:resource="http://web.resource.org/cc/DerivativeWorks" />
      </cc:License>
    </rdf:RDF>
  </metadata>
  <defs
     id="defs111">
    <linearGradient
       y2="463.81641"
       y1="463.81641"
       x2="-247.0114"
       x1="-248.78371"
       id="XMLID_6_"
       gradientUnits="userSpaceOnUse"
       gradientTransform="matrix(181.333,0,0,-181.333,45114.3,84197)">
      <stop
         style="stop-color: rgb(244, 244, 244);"
         offset="0"
         id="stop18" />
      <stop
         style="stop-color: rgb(110, 110, 110);"
         offset="1"
         id="stop20" />
    </linearGradient>
    <linearGradient
       y2="463.8613"
       y1="463.8613"
       x2="-246.8642"
       x1="-248.59621"
       id="XMLID_7_"
       gradientUnits="userSpaceOnUse"
       gradientTransform="matrix(181.333,0,0,-181.333,45159.3,84188.6)">
      <stop
         style="stop-color: rgb(244, 244, 244);"
         offset="0"
         id="stop25" />
      <stop
         style="stop-color: rgb(110, 110, 110);"
         offset="1"
         id="stop27" />
    </linearGradient>
    <linearGradient
       y2="463.69629"
       y1="463.69629"
       x2="-246.8481"
       x1="-248.5981"
       id="XMLID_8_"
       gradientUnits="userSpaceOnUse"
       gradientTransform="matrix(181.333,0,0,-181.333,45159.3,84188.6)">
      <stop
         style="stop-color: rgb(255, 255, 255);"
         offset="0"
         id="stop32" />
      <stop
         style="stop-color: rgb(115, 115, 115);"
         offset="1"
         id="stop34" />
    </linearGradient>
    <linearGradient
       y2="463.69919"
       y1="463.69919"
       x2="-246.8615"
       x1="-248.59621"
       id="XMLID_9_"
       gradientUnits="userSpaceOnUse"
       gradientTransform="matrix(181.333,0,0,-181.333,45159.3,84188.6)">
      <stop
         style="stop-color: rgb(219, 219, 219);"
         offset="0"
         id="stop85" />
      <stop
         style="stop-color: rgb(99, 99, 99);"
         offset="1"
         id="stop87" />
    </linearGradient>
    <linearGradient
       y2="463.71481"
       y1="463.71481"
       x2="-246.8546"
       x1="-248.5972"
       id="XMLID_10_"
       gradientUnits="userSpaceOnUse"
       gradientTransform="matrix(181.333,0,0,-181.333,45159.3,84188.6)">
      <stop
         style="stop-color: rgb(210, 210, 210);"
         offset="0"
         id="stop92" />
      <stop
         style="stop-color: rgb(94, 94, 94);"
         offset="1"
         id="stop94" />
    </linearGradient>
    <linearGradient
       inkscape:collect="always"
       xlink:href="#XMLID_10_"
       id="linearGradient2891"
       gradientUnits="userSpaceOnUse"
       gradientTransform="matrix(146.10804,0,0,-146.10804,36400.287,67847.912)"
       x1="-248.5972"
       y1="463.71481"
       x2="-246.8546"
       y2="463.71481" />
    <linearGradient
       inkscape:collect="always"
       xlink:href="#XMLID_9_"
       id="linearGradient2894"
       gradientUnits="userSpaceOnUse"
       gradientTransform="matrix(146.10804,0,0,-146.10804,36400.287,67847.912)"
       x1="-248.59621"
       y1="463.69919"
       x2="-246.8615"
       y2="463.69919" />
    <linearGradient
       inkscape:collect="always"
       xlink:href="#XMLID_8_"
       id="linearGradient2920"
       gradientUnits="userSpaceOnUse"
       gradientTransform="matrix(146.10804,0,0,-146.10804,36400.287,67847.912)"
       x1="-248.5981"
       y1="463.69629"
       x2="-246.8481"
       y2="463.69629" />
    <linearGradient
       inkscape:collect="always"
       xlink:href="#XMLID_7_"
       id="linearGradient2923"
       gradientUnits="userSpaceOnUse"
       gradientTransform="matrix(146.10804,0,0,-146.10804,36400.287,67847.912)"
       x1="-248.59621"
       y1="463.8613"
       x2="-246.8642"
       y2="463.8613" />
    <linearGradient
       inkscape:collect="always"
       xlink:href="#XMLID_6_"
       id="linearGradient2926"
       gradientUnits="userSpaceOnUse"
       gradientTransform="matrix(146.10804,0,0,-146.10804,36364.028,67854.681)"
       x1="-248.78371"
       y1="463.81641"
       x2="-247.0114"
       y2="463.81641" />
  </defs>
  <sodipodi:namedview
     bordercolor="#666666"
     borderopacity="1.0"
     id="base"
     inkscape:current-layer="Layer_1"
     inkscape:cx="72.769342"
     inkscape:cy="64.141616"
     inkscape:pageopacity="0.0"
     inkscape:pageshadow="2"
     inkscape:window-height="864"
     inkscape:window-width="1385"
     inkscape:window-x="22"
     inkscape:window-y="29"
     inkscape:zoom="3.6842335"
     pagecolor="#ffffff"
     showgrid="false"
     inkscape:window-maximized="0" />
  <path
     style="fill:#ffffff"
     id="path5"
     d="m 123.55513,79.193983 c 0,13.440622 0,26.881247 0,40.322667 0,6.71991 -16.65152,4.01986 -20.86556,4.05773 -28.504013,0.25784 -57.010443,0.15632 -85.515261,0.48184 -3.612958,0.0411 -3.013484,-3.78458 -2.978837,-6.16153 0.100718,-6.69815 0.170817,-13.39792 0.219968,-20.098487 0.125696,-17.047939 0.06768,-34.095878 0.06768,-51.143012 0,-9.668932 0,-19.338671 0,-29.006797 0,-4.146361 6.499135,-3.000592 9.121832,-3.000592 26.776497,0 53.552189,0 80.327076,0 3.35592,0 19.6231,-2.404342 19.6231,3.263264 0,20.428037 0,40.856074 0,61.284917" />
  <path
     style="fill:#a8a8a8"
     id="path7"
     d="m 17.28953,13.942387 c -5.273597,0 -3.498542,10.86224 -3.498542,13.954687 0,9.079933 0,18.15906 0,27.238994 0,18.374194 0.02981,36.748389 -0.19499,55.123392 -0.04351,3.6339 -0.0983,7.26701 -0.155509,10.90011 -0.06527,4.17214 4.479133,3.59201 7.227527,3.5638 13.967579,-0.14906 27.935963,-0.2538 41.905153,-0.2957 16.753037,-0.0508 33.506074,-0.0661 50.259111,-0.26106 4.90134,-0.0572 11.42787,1.21022 11.42787,-5.27924 0,-31.270941 0,-62.538657 0,-93.806373 0,-2.771761 1.178,-9.454604 -2.14005,-10.86224 -2.78143,-1.182027 -7.37418,-0.275564 -10.25149,-0.275564 -17.186527,0 -34.373055,0 -51.557971,0 -14.340638,-8.06e-4 -28.679665,-8.06e-4 -43.021109,-8.06e-4 M 14.836038,121.26431 c 0,-33.888798 0.352916,-67.78163 0.352916,-101.672849 0,-3.675 1.518023,-4.251913 4.873142,-4.251913 5.914164,0 11.828328,0 17.74088,0 18.480553,0 36.959494,0 55.438436,0 2.943384,0 29.610298,-2.264142 29.610298,2.171481 0,11.779177 0,23.555936 0,35.334308 0,18.055925 0,36.112656 0,54.168583 0,4.37519 0,8.75119 0,13.12638 0,4.79176 -16.73128,2.69683 -19.55622,2.72503 -19.067941,0.17726 -38.137493,0.12408 -57.206239,0.24333 -2.953053,0.0169 -31.253213,2.50184 -31.253213,-1.84435" />
  <path
     style="fill:#f4f4f4"
     id="path9"
     d="m 116.08024,92.936759 c -0.477,7.901931 -16.973009,2.937744 -21.477926,5.010924 -2.311681,1.064389 -2.537289,2.967557 -3.017513,5.156767 -0.45444,2.06673 -1.319003,4.04725 -2.37614,5.87307 -0.852477,1.46806 -1.852406,2.8483 -2.963528,4.13105 -2.293954,2.64848 -3.241509,2.92163 -6.641751,3.01187 -14.712086,0.38756 -29.428201,0.59786 -44.145122,0.74129 -3.452615,0.0346 -13.06998,2.08204 -13.040973,-3.24796 0.15148,-29.080925 0.30296,-58.159433 0.45444,-87.239553 0.01773,-3.392184 2.538095,-3.333365 5.170462,-3.333365 5.503234,0 11.004856,0 16.506479,0 16.641038,0 33.281271,0 49.923115,0 5.317107,0 10.635827,0 15.954547,0 4.04564,0 4.72569,1.712207 4.77887,5.595895 0.29007,21.4328 0.57852,42.866406 0.87504,64.300012" />
  <path
     style="fill:#d82a2a"
     id="path11"
     d="m 124.31333,38.123581 c 0,4.09157 -7.87293,2.796739 -10.30386,2.796739 -7.37014,0 -14.739479,0 -22.109623,0 -18.555487,0 -37.11178,0 -55.666461,0 -5.735288,0 -11.470577,0 -17.205865,0 -5.798137,0 -5.122117,-4.274474 -5.122117,-9.183069 -8.06e-4,-3.193165 -2.231106,-18.315375 3.022347,-18.315375 4.114131,0 8.227456,0 12.340781,0 24.238402,0 48.47761,0 72.716818,0 6.47577,0 12.94992,0 19.42247,0 5.39526,0 2.90551,20.848636 2.90551,24.701705" />
  <path
     style="fill:#ef5656"
     id="path13"
     d="m 17.168668,36.434741 c -0.08541,-0.07171 1.922506,-10.928311 2.040951,-12.099863 0.41657,-4.0537 1.124013,-5.609593 5.325164,-5.76913 13.030498,-0.499561 26.072277,-1.014432 39.113249,-1.11515 16.71275,-0.131336 33.455312,0.305377 50.148728,1.093395 3.51949,0.165178 4.78451,1.139322 5.05765,4.799819 0.2103,2.78707 -0.47216,11.667179 1.67273,13.66623 0.007,0.0056 1.0515,-6.765029 1.09581,-7.398344 0.24575,-3.539635 0.41657,-7.083299 0.55516,-10.626963 0.17243,-4.355854 -4.48397,-3.465506 -7.40882,-3.465506 -14.63312,0 -29.267859,0 -43.900982,0 -15.230986,0 -30.46036,0 -45.692152,0 -2.312486,0 -9.167759,-1.145769 -9.167759,2.688769 -0.675214,2.255278 0.148256,5.939141 0.2385,8.262102 0.0709,1.791976 -0.607531,8.672227 0.921771,9.964641" />
  <path
     style="fill:#b20d0d"
     id="path15"
     d="m 123.55513,40.514225 c -29.076095,0 -58.152992,0 -87.228278,0 -6.167973,0 -12.337557,0 -18.507142,0 -1.218286,0 -2.435765,0 -3.655662,0 -0.809773,0 -0.56805,-2.384198 1.193307,-2.414816 29.776283,-0.497144 59.554984,-0.63815 89.333685,-0.268313 5.16885,0.06446 10.3377,0.139394 15.50816,0.230443 2.22305,0.04109 4.21082,-0.646207 3.35593,2.452686" />
  <path
     style="fill:url(#linearGradient2926)"
     id="path22"
     d="m 43.805772,63.89048 c -3.845013,0 -7.69083,0 -11.535843,0 -1.971656,0 -1.036993,3.166576 -1.036993,4.821575 0,10.508518 0,21.017842 0,31.527165 0,3.13999 0,6.28158 0,9.42238 0,1.35042 7.634428,0.59061 8.980021,0.59061 0.383535,0 3.592009,0.19257 3.592009,-0.15793 0,-2.51956 0,-5.03751 0,-7.55708 0,-3.757988 0.06849,-3.158515 -4.035168,-3.260038 -0.406095,-0.0097 -7.820555,-0.07332 -7.820555,-0.439131 0,-0.88229 11.855723,0.34083 11.855723,-0.978174 0,-3.663719 0,-7.326633 0,-10.990353 8.06e-4,-7.659406 8.06e-4,-15.318006 8.06e-4,-22.979024" />
  <path
     style="fill:url(#linearGradient2923)"
     id="path29"
     d="m 106.70298,52.70272 c -4.00132,0 -8.003456,0 -12.003977,0 0.931441,14.065074 0.750148,28.438747 0.09024,42.511073 4.039196,-0.103136 8.100143,-0.901628 11.718743,-2.748394 -0.141,-4.381638 -0.19418,-8.764888 -0.21835,-13.148137 -0.0524,-8.851908 -0.17082,-17.775526 0.41334,-26.614542" />
  <path
     style="fill:url(#linearGradient2920)"
     id="path36"
     d="m 99.368292,98.03551 c -0.840392,-0.0056 -1.679171,0.02739 -2.515534,0.0983 2.322155,0 4.646732,0 6.969692,0 -1.48499,-0.03545 -2.96998,-0.0983 -4.454158,-0.0983" />
  <path
     style="fill:#ef5656"
     id="path38"
     d="m 69.682252,87.649465 c -4.400976,0 -8.80034,0 -13.202122,0 0.352917,0 -0.949972,-11.294119 -0.118444,-12.069245 1.571202,-1.463232 10.844514,0 13.202122,0 0.239306,8.05e-4 0.118444,10.807449 0.118444,12.069245" />
  <path
     style="fill:#a8a8a8"
     id="path40"
     d="m 32.66555,88.05556 c 0,1.446311 0.125696,24.17072 -0.715501,24.17072 -1.078892,0 -1.078892,-48.34144 0,-48.34144 0.841197,0 0.715501,22.723603 0.715501,24.17072" />
  <path
     style="fill:#a8a8a8"
     id="path42"
     d="m 44.551085,88.05556 c 0,1.446311 0.125696,24.17072 -0.715501,24.17072 -1.078086,0 -1.078086,-48.34144 0,-48.34144 0.841197,0 0.715501,22.723603 0.715501,24.17072" />
  <path
     style="fill:#a8a8a8"
     id="path44"
     d="m 56.670286,80.715229 c 0,1.783918 0.125696,30.113081 -0.715501,30.113081 -1.079697,0 -1.079697,-60.226972 0,-60.226972 0.841197,0 0.715501,28.329167 0.715501,30.113891" />
  <path
     style="fill:#567cef;fill-opacity:1;overflow:visible"
     id="path38-3"
     d="m 81.794975,99.106534 c -3.970627,0 -7.939801,0 -11.911157,0 0.318408,0 -0.857079,-10.189729 -0.106862,-10.889059 1.417563,-1.320151 9.784087,0 11.911158,0 0.215905,7.26e-4 0.106861,9.750647 0.106861,10.889059" />
  <path
     style="fill:#a8a8a8"
     id="path46"
     d="m 70.42112,80.715229 c 0,1.783918 0.125696,30.113081 -0.715501,30.113081 -1.079698,0 -1.079698,-60.226972 0,-60.226972 0.841197,0 0.715501,28.329167 0.715501,30.113891" />
  <path
     style="fill:#a8a8a8"
     id="path48"
     d="m 95.126853,74.776087 c 0,1.447117 0.117639,24.163468 -0.717112,24.163468 -1.085338,0 -1.085338,-48.338217 0,-48.338217 0.835557,0 0.717112,22.729243 0.717112,24.174749" />
  <path
     style="fill:#a8a8a8"
     id="path50"
     d="m 82.538709,80.715229 c 0,1.783918 0.125696,30.113081 -0.715501,30.113081 -1.080503,0 -1.080503,-60.226972 0,-60.226972 0.841197,0 0.715501,28.329167 0.715501,30.113891" />
  <path
     style="fill:#a8a8a8"
     id="path52"
     d="m 107.71097,74.776087 c 0,1.447117 0.11844,24.163468 -0.71711,24.163468 -1.08454,0 -1.08454,-48.338217 0,-48.338217 0.83636,0 0.71711,22.729243 0.71711,24.174749" />
  <path
     style="fill:#a8a8a8"
     id="path54"
     d="m 69.638742,63.169339 c 2.215797,0 37.686278,-0.127307 37.686278,0.715501 0,1.079698 -75.374971,1.079698 -75.374971,0 0,-0.842808 35.47209,-0.715501 37.688693,-0.715501" />
  <path
     style="fill:#a8a8a8"
     id="path56"
     d="m 69.638742,74.355488 c 2.215797,0 37.686278,-0.126502 37.686278,0.716307 0,1.079697 -75.374971,1.079697 -75.374971,0 0,-0.842809 35.47209,-0.716307 37.688693,-0.716307" />
  <path
     style="fill:#a8a8a8"
     id="path58"
     d="m 69.638742,87.174075 c 2.215797,0 37.686278,-0.127307 37.686278,0.715501 0,1.080504 -75.374971,1.078892 -75.374971,0 0,-0.842808 35.47209,-0.715501 37.688693,-0.715501" />
  <path
     style="fill:#a8a8a8"
     id="path60"
     d="m 81.532334,51.516664 c 1.597792,0 26.841766,-0.125696 26.841766,0.715501 0,1.078892 -53.685139,1.078892 -53.685139,0 0,-0.840391 25.245582,-0.715501 26.843373,-0.715501" />
  <path
     style="fill:#a8a8a8"
     id="path62"
     d="m 69.641159,98.119307 c 2.216603,0 37.679831,-0.118444 37.679831,0.71953 0,1.086949 -75.370941,1.086949 -75.370941,0 0,-0.837974 35.475313,-0.71953 37.69111,-0.71953" />
  <path
     style="fill:#a8a8a8"
     id="path64"
     d="m 57.303601,110.01451 c 1.513188,0 25.35033,-0.1265 25.35033,0.7147 0,1.07889 -50.704688,1.07889 -50.704688,0 8.06e-4,-0.8412 23.84117,-0.7147 25.354358,-0.7147" />
  <path
     style="fill:#dbdbdb"
     id="path66"
     d="m 81.484796,121.73003 c 10.395713,1.03458 20.901814,-4.37277 27.849744,-11.76709 3.87241,-4.11252 6.0173,-9.51664 9.05093,-14.206076 2.85314,-4.407421 1.98374,3.894969 1.97971,5.607176 -0.0113,4.9231 2.25287,17.20264 -3.93847,18.88423 -11.02984,2.99898 -23.703392,1.96038 -34.941914,1.48176" />
  <path
     style="fill:#dbdbdb"
     id="path68"
     d="m 111.53584,97.174169 c -1.40764,0.306988 -2.86523,0.3787 -4.30187,0.348081 -0.11925,1.402801 3.43086,0.01289 4.30187,-0.348081 m 7.30004,-22.750192 c -0.3086,2.332629 -1.00476,4.621749 -1.95071,6.771475 -1.80406,4.099628 0.13215,8.333008 -0.92902,12.555915 3.98924,-5.235727 3.92881,-13.115907 2.87973,-19.32739" />
  <path
     style="fill:#d2d2d2"
     id="path70"
     d="m 115.94406,83.117958 c -1.34317,2.483304 -3.1142,4.73536 -5.26634,6.568428 -1.84515,1.568785 -3.1424,1.414082 -3.2399,3.984406 -0.0475,1.283551 -0.0999,2.568713 -0.20385,3.850653 3.10775,0.06768 5.60637,-0.453634 7.82861,-2.734697 2.3149,-2.372917 0.925,-8.549753 0.88148,-11.66879" />
  <path
     style="fill:#dbdbdb"
     id="path72"
     d="m 94.226837,98.137033 c -0.557575,0.305377 0.02981,0.243335 0,0" />
  <path
     style="fill:#d2d2d2"
     id="path74"
     d="m 94.030235,95.226685 c -2.303623,0 -4.019858,0.901628 -5.112448,2.996563 1.324644,0.0145 4.15603,0.547906 5.30905,-0.08621 0,-0.790435 -0.155509,-2.014361 -0.196602,-2.910348" />
  <path
     style="fill:#dbdbdb"
     id="path76"
     d="m 106.72957,97.50533 c 0.025,0.434296 0.0701,1.236012 0,0" />
  <path
     style="fill:#d2d2d2"
     id="path78"
     d="m 106.72957,97.21365 c 0.0177,0.450411 0.0266,0.327938 0,0" />
  <path
     style="fill:#dbdbdb"
     id="path80"
     d="m 91.252029,104.35416 c -0.879067,2.88214 -2.416428,5.55319 -4.293812,7.8971 -2.324572,2.90229 -2.374529,6.99386 -5.473421,9.47877 7.365309,-2.13038 9.946914,-10.49723 9.767233,-17.37587 m 1.559115,-4.947274 c -0.111193,0 -0.510036,0.384341 0,0 m 4.041614,-1.273076 c -0.449605,-0.0073 -2.231912,-0.223997 -2.282674,0.169207 0.767874,0.05962 1.528497,0.004 2.282674,-0.169207 m 9.876812,0 c -0.96931,0 -1.93781,0 -2.90632,0 0.9677,0.02901 1.93621,0.02901 2.90632,0" />
  <path
     style="fill:#d2d2d2"
     id="path82"
     d="m 92.719289,99.407692 c -4.640282,0.06768 -4.782898,0.440742 -5.551578,4.980308 -0.533403,3.15046 -0.854895,6.33879 -1.582482,9.45541 2.276227,-2.45672 4.170532,-5.32114 5.325164,-8.47482 0.802522,-2.18518 0.296514,-3.92881 1.808896,-5.960898" />
  <path
     style="fill:url(#linearGradient2894)"
     id="path89"
     d="m 100.24091,97.014631 c -0.730807,0 -5.522569,0.0056 -5.649877,1.119179 4.034362,0.103941 8.096927,0 12.137737,0 0,-0.210299 0,-0.418181 0,-0.627675 -2.17874,-0.08863 -4.30026,-0.491504 -6.48786,-0.491504" />
  <path
     style="fill:url(#linearGradient2891)"
     id="path96"
     d="m 94.156737,97.378828 c 0.01047,0.228831 0.01128,0.626063 0.0701,0.754982 -0.02256,-0.251392 -0.04754,-0.502784 -0.0701,-0.754982 m 12.351253,-4.913429 c -1.91445,0.976562 -3.96507,1.668696 -6.06484,2.11105 -3.600867,0.758205 -5.440381,-0.588999 -5.831167,3.367206 3.819228,-1.751689 8.131567,-0.596251 12.117587,-0.43752 -0.0798,-1.679977 -0.1684,-3.359148 -0.22158,-5.040736" />
  <path
     style="fill:#909090"
     id="path98"
     d="m 94.789247,95.213793 c -0.253004,0.0064 -0.506814,0.0097 -0.759012,0.0137 0.04754,1.024101 0.104747,2.049008 0.21594,3.071498 0.826694,0.0137 0.520511,-2.592885 0.543072,-3.085195" />
  <path
     style="fill:#909090"
     id="path100"
     d="m 107.49664,91.928773 c -1.75733,1.014432 -0.91049,4.226129 -0.68569,6.201814 0.90002,-0.02981 0.66071,-5.386401 0.68569,-6.201814" />
  <path
     style="fill:#909090"
     id="path102"
     d="m 88.917787,98.223248 c -0.182904,0.413347 -0.364196,0.825082 -0.5471,1.238429 2.99898,-0.03062 4.423536,-0.622035 7.133255,-1.142545 -2.195654,-0.03948 -4.390501,-0.07091 -6.586155,-0.09588" />
  <path
     style="fill:#d0d0d0"
     id="path104"
     d="m 88.016159,121.48509 c -0.881484,0.0322 -1.761357,0.0548 -2.643647,0.0685 0.887125,0.14503 1.768609,0.12247 2.643647,-0.0685 M 119.70609,89.986123 c -0.7429,0 -3.70562,8.419223 -4.09963,9.177429 -3.62505,6.966468 -8.8503,13.349568 -15.2326,17.967298 6.54103,-3.78297 10.9549,-9.11861 14.65004,-15.57263 1.30612,-2.280253 2.4406,-4.928734 4.17698,-6.92698 0.41093,-0.473778 1.57362,-4.645117 0.50521,-4.645117" />
  <path
     style="fill:#bfbfbf"
     id="path106"
     d="m 119.87368,94.146987 c -2.46074,8.06e-4 -8.04536,12.838733 -9.69955,14.856313 -5.93914,7.2509 -14.210914,11.6285 -23.356113,12.63891 5.223641,0.30135 10.822759,1.17477 15.647553,-1.06439 4.78048,-2.21983 10.02185,-5.41541 12.30453,-10.40055 1.26501,-2.7629 0.6881,-8.76247 3.92961,-10.281297 1.49707,-0.701803 2.01678,-5.748986 1.17397,-5.748986" />
  <path
     style="fill:#ffffff"
     id="path108"
     d="m 93.666845,99.767054 c 0,2.880536 17.163965,2.579186 16.672465,-1.189279 -0.20708,-1.583287 -16.672465,-1.011209 -16.672465,1.189279" />
</svg>
